<svg xmlns="http://www.w3.org/2000/svg" viewBox="0 0 100 100">
  <g transform="translate(2, 25)">
    <!-- Bridge / Superstructure -->
    <rect x="5" y="15" width="18" height="25" fill="#BDC3C7" />
    <rect x="9" y="5" width="10" height="10" fill="#7F8C8D" />
    <rect x="7" y="20" width="14" height="6" fill="#34495E" />
    <rect x="7" y="28" width="14" height="6" fill="#34495E" />

    <!-- Containers -->
    <!-- Bottom Row -->
    <rect x="26" y="24" width="14" height="16" fill="#E74C3C" />
    <rect x="42" y="24" width="14" height="16" fill="#F1C40F" />
    <rect x="58" y="24" width="14" height="16" fill="#3498DB" />
    <rect x="74" y="24" width="14" height="16" fill="#2ECC71" />
    
    <!-- Top Row -->
    <rect x="26" y="6" width="14" height="16" fill="#9B59B6" />
    <rect x="42" y="6" width="14" height="16" fill="#E67E22" />
    <rect x="58" y="6" width="14" height="16" fill="#1ABC9C" />
    <rect x="74" y="6" width="14" height="16" fill="#E74C3C" />

    <!-- Hull (Navy Blue) -->
    <path d="M 0 40 L 88 40 L 98 20 L 0 20 Z" fill="#0d233a" />
    
    <!-- Waterline -->
    <path d="M 0 44 L 92 44" stroke="#e6e6e6" stroke-width="2" />
  </g>
</svg>
